<mxfile host="app.diagrams.net" agent="Mozilla/5.0 (Windows NT 10.0; Win64; x64) AppleWebKit/537.36 (KHTML, like Gecko) Chrome/131.0.0.0 Safari/537.36" version="25.0.3">
  <diagram name="Side-1" id="M_8jaddpAcBc_p0ewjSc">
    <mxGraphModel dx="2067" dy="844" grid="1" gridSize="10" guides="1" tooltips="1" connect="1" arrows="1" fold="1" page="1" pageScale="1" pageWidth="827" pageHeight="1169" math="0" shadow="0">
      <root>
        <mxCell id="0" />
        <mxCell id="TLWgxVk_4iHTqdzo4RCf-10" value="4" parent="0" />
        <mxCell id="wKvgLo9anTYskzgggmUT-33" value="" style="shape=stencil(rVRNT4NAEP01JHqgQdCDxwb14MHE6B+Ybqdl0mWX7C6F+uudZUtbSmmMmhBg3mPefC5RltsCKozSREGJUfYUpel7DcahYSwnIySTKb8Xgbx/DGYzNMFWKFzAtmAIFr2fdUZvsKGl2yuQKtCQ82z2HCVz/sZfWS60UixCWtkBc8KzGJBi36QNYsnsIYTZ7e1gVRyhRF/EKXos8S0AUfry60h3P4v0cTlSljMyVXCWL0Bs1kbXankxvwp8M0dET5d6i8fE+xENO3S59F5BkjpRSP5XoE/oisJn4b3BCL4bWBLx88a0HuOWMLa79SsJXZ1O860EJwpvdJ79Ulv6OnwBoiDsHJoC/GB3uvYGKDfj52ttPWiwkiAw0OaQxL6ehlwIQjyx+VTx+7zP+m/Oym9jaMnGRjvwKzDolASzxph14pWE9YCyDWI1hv8wbCG1xSungfHRwnXoxJZm+UobvLK+K5Iy/BamTsZIoEPDVDvgGw==);whiteSpace=wrap;html=1;fillColor=#9FBBD6;strokeColor=#314354;rotation=-180;shadow=1;shadowColor=#FFFFFF;shadowOpacity=40;shadowOffsetX=-5;shadowOffsetY=-5;shadowBlur=5;" parent="TLWgxVk_4iHTqdzo4RCf-10" vertex="1">
          <mxGeometry x="-700" y="340" width="960" height="960" as="geometry" />
        </mxCell>
        <mxCell id="TLWgxVk_4iHTqdzo4RCf-54" value="" style="verticalAlign=top;align=left;spacingTop=8;spacingLeft=2;spacingRight=12;shape=cube;size=10;direction=south;fontStyle=4;html=1;whiteSpace=wrap;strokeColor=#3A5431;fillColor=#6d8764;rotation=0;strokeWidth=1;noLabel=0;connectable=1;allowArrows=1;fixDash=0;recursiveResize=1;comic=0;fontColor=#ffffff;" parent="TLWgxVk_4iHTqdzo4RCf-10" vertex="1">
          <mxGeometry x="-170" y="460" width="130" height="110" as="geometry" />
        </mxCell>
        <mxCell id="wKvgLo9anTYskzgggmUT-50" value="&lt;font style=&quot;font-size: 17px;&quot;&gt;&lt;b style=&quot;&quot;&gt;Razor-pages&lt;/b&gt;&lt;/font&gt;" style="text;html=1;align=center;verticalAlign=middle;resizable=0;points=[];autosize=1;strokeColor=none;fillColor=none;" parent="TLWgxVk_4iHTqdzo4RCf-10" vertex="1">
          <mxGeometry x="-175" y="480" width="130" height="30" as="geometry" />
        </mxCell>
        <mxCell id="wKvgLo9anTYskzgggmUT-63" value="&lt;h1 style=&quot;margin-top: 0px; line-height: 60%;&quot;&gt;&lt;font&gt;&lt;br&gt;&lt;/font&gt;&lt;/h1&gt;&lt;h1 style=&quot;margin-top: 0px; line-height: 60%;&quot;&gt;&lt;font&gt;User Interface&lt;/font&gt;&lt;/h1&gt;&lt;h3 style=&quot;line-height: 60%;&quot;&gt;&lt;font style=&quot;font-size: 17px; line-height: 60%;&quot;&gt;Chirp.Web&lt;/font&gt;&lt;/h3&gt;&lt;p style=&quot;line-height: 90%;&quot;&gt;&lt;font style=&quot;line-height: 110%; font-size: 17px;&quot;&gt;This layer contains all the project&#39;s UI components; it is where the database is seeded and where the program starts&lt;/font&gt;&lt;/p&gt;" style="text;html=1;whiteSpace=wrap;overflow=hidden;rounded=0;" parent="TLWgxVk_4iHTqdzo4RCf-10" vertex="1">
          <mxGeometry x="10" y="350" width="250" height="200" as="geometry" />
        </mxCell>
        <mxCell id="YltTFYBNyNlsqMFiV3Cx-0" value="&lt;font style=&quot;font-size: 17px;&quot; color=&quot;#000000&quot;&gt;&lt;b style=&quot;&quot;&gt;Program&lt;/b&gt;&lt;/font&gt;" style="rounded=1;whiteSpace=wrap;html=1;fillColor=#6d8764;fontColor=#ffffff;strokeColor=#3A5431;" vertex="1" parent="TLWgxVk_4iHTqdzo4RCf-10">
          <mxGeometry x="-460" y="730" width="120" height="40" as="geometry" />
        </mxCell>
        <mxCell id="wKvgLo9anTYskzgggmUT-62" value="&lt;font style=&quot;font-size: 17px;&quot; color=&quot;#000000&quot;&gt;&lt;b style=&quot;&quot;&gt;DbInitializer&lt;/b&gt;&lt;/font&gt;" style="rounded=1;whiteSpace=wrap;html=1;fillColor=#6d8764;fontColor=#ffffff;strokeColor=#3A5431;" parent="TLWgxVk_4iHTqdzo4RCf-10" vertex="1">
          <mxGeometry x="-650" y="1110" width="120" height="40" as="geometry" />
        </mxCell>
        <mxCell id="TLWgxVk_4iHTqdzo4RCf-9" value="3" parent="0" />
        <mxCell id="wKvgLo9anTYskzgggmUT-32" value="" style="shape=stencil(rVRNT4NAEP01JHqgQdCDxwb14MHE6B+Ybqdl0mWX7C6F+uudZUtbSmmMmhBg3mPefC5RltsCKozSREGJUfYUpel7DcahYSwnIySTKb8Xgbx/DGYzNMFWKFzAtmAIFr2fdUZvsKGl2yuQKtCQ82z2HCVz/sZfWS60UixCWtkBc8KzGJBi36QNYsnsIYTZ7e1gVRyhRF/EKXos8S0AUfry60h3P4v0cTlSljMyVXCWL0Bs1kbXankxvwp8M0dET5d6i8fE+xENO3S59F5BkjpRSP5XoE/oisJn4b3BCL4bWBLx88a0HuOWMLa79SsJXZ1O860EJwpvdJ79Ulv6OnwBoiDsHJoC/GB3uvYGKDfj52ttPWiwkiAw0OaQxL6ehlwIQjyx+VTx+7zP+m/Oym9jaMnGRjvwKzDolASzxph14pWE9YCyDWI1hv8wbCG1xSungfHRwnXoxJZm+UobvLK+K5Iy/BamTsZIoEPDVDvgGw==);whiteSpace=wrap;html=1;fillColor=#92ABC4;strokeColor=#314354;rotation=-180;shadow=1;shadowColor=#FFFFFF;shadowOpacity=40;shadowOffsetX=-5;shadowOffsetY=-5;shadowBlur=5;" parent="TLWgxVk_4iHTqdzo4RCf-9" vertex="1">
          <mxGeometry x="-500" y="540" width="760" height="760" as="geometry" />
        </mxCell>
        <mxCell id="wKvgLo9anTYskzgggmUT-59" value="&lt;font style=&quot;font-size: 17px;&quot; color=&quot;#000000&quot;&gt;&lt;b style=&quot;&quot;&gt;Migrations&lt;/b&gt;&lt;/font&gt;" style="rounded=1;whiteSpace=wrap;html=1;fillColor=#6d8764;fontColor=#ffffff;strokeColor=#3A5431;" parent="TLWgxVk_4iHTqdzo4RCf-9" vertex="1">
          <mxGeometry x="-460" y="1190" width="120" height="40" as="geometry" />
        </mxCell>
        <mxCell id="YltTFYBNyNlsqMFiV3Cx-4" value="&lt;font style=&quot;font-size: 17px;&quot; color=&quot;#000000&quot;&gt;&lt;b style=&quot;&quot;&gt;AuthorRepository&lt;/b&gt;&lt;/font&gt;" style="rounded=1;whiteSpace=wrap;html=1;fillColor=#6d8764;fontColor=#ffffff;strokeColor=#3A5431;" vertex="1" parent="TLWgxVk_4iHTqdzo4RCf-9">
          <mxGeometry x="-220" y="750" width="170" height="40" as="geometry" />
        </mxCell>
        <mxCell id="YltTFYBNyNlsqMFiV3Cx-5" value="&lt;font style=&quot;font-size: 17px;&quot; color=&quot;#000000&quot;&gt;&lt;b style=&quot;&quot;&gt;CheepRepository&lt;/b&gt;&lt;/font&gt;" style="rounded=1;whiteSpace=wrap;html=1;fillColor=#6d8764;fontColor=#ffffff;strokeColor=#3A5431;" vertex="1" parent="TLWgxVk_4iHTqdzo4RCf-9">
          <mxGeometry x="-350" y="880" width="170" height="40" as="geometry" />
        </mxCell>
        <mxCell id="YltTFYBNyNlsqMFiV3Cx-6" value="&lt;font style=&quot;font-size: 17px;&quot; color=&quot;#000000&quot;&gt;&lt;b style=&quot;&quot;&gt;CheepDBContext&lt;/b&gt;&lt;/font&gt;" style="rounded=1;whiteSpace=wrap;html=1;fillColor=#6d8764;fontColor=#ffffff;strokeColor=#3A5431;" vertex="1" parent="TLWgxVk_4iHTqdzo4RCf-9">
          <mxGeometry x="-430" y="1030" width="160" height="40" as="geometry" />
        </mxCell>
        <mxCell id="wKvgLo9anTYskzgggmUT-66" value="&lt;h1 style=&quot;margin-top: 0px; line-height: 70%;&quot;&gt;&lt;br&gt;&lt;/h1&gt;&lt;h1 style=&quot;margin-top: 0px; line-height: 60%;&quot;&gt;Infrastructure&lt;/h1&gt;&lt;h3 style=&quot;line-height: 60%;&quot;&gt;&lt;font style=&quot;font-size: 17px; line-height: 60%;&quot;&gt;Chirp.Infrastructure&lt;/font&gt;&lt;/h3&gt;&lt;p style=&quot;line-height: 90%;&quot;&gt;&lt;font style=&quot;font-size: 17px; line-height: 100%;&quot;&gt;This layer contains our repositories, as well as our context class and migrations. It allows us to define our database schema and interact with the database objects&amp;nbsp;&lt;/font&gt;&lt;/p&gt;" style="text;html=1;whiteSpace=wrap;overflow=hidden;rounded=0;" parent="TLWgxVk_4iHTqdzo4RCf-9" vertex="1">
          <mxGeometry x="-20" y="560" width="280" height="220" as="geometry" />
        </mxCell>
        <mxCell id="TLWgxVk_4iHTqdzo4RCf-8" value="2" parent="0" />
        <mxCell id="wKvgLo9anTYskzgggmUT-31" value="" style="shape=stencil(rVRNT4NAEP01JHqgQdCDxwb14MHE6B+Ybqdl0mWX7C6F+uudZUtbSmmMmhBg3mPefC5RltsCKozSREGJUfYUpel7DcahYSwnIySTKb8Xgbx/DGYzNMFWKFzAtmAIFr2fdUZvsKGl2yuQKtCQ82z2HCVz/sZfWS60UixCWtkBc8KzGJBi36QNYsnsIYTZ7e1gVRyhRF/EKXos8S0AUfry60h3P4v0cTlSljMyVXCWL0Bs1kbXankxvwp8M0dET5d6i8fE+xENO3S59F5BkjpRSP5XoE/oisJn4b3BCL4bWBLx88a0HuOWMLa79SsJXZ1O860EJwpvdJ79Ulv6OnwBoiDsHJoC/GB3uvYGKDfj52ttPWiwkiAw0OaQxL6ehlwIQjyx+VTx+7zP+m/Oym9jaMnGRjvwKzDolASzxph14pWE9YCyDWI1hv8wbCG1xSungfHRwnXoxJZm+UobvLK+K5Iy/BamTsZIoEPDVDvgGw==);whiteSpace=wrap;html=1;fillColor=#7E95AB;strokeColor=#314354;rotation=-180;shadow=1;shadowColor=#FFFFFF;shadowOpacity=40;shadowOffsetX=-5;shadowOffsetY=-5;shadowBlur=5;" parent="TLWgxVk_4iHTqdzo4RCf-8" vertex="1">
          <mxGeometry x="-300" y="740" width="560" height="560" as="geometry" />
        </mxCell>
        <mxCell id="wKvgLo9anTYskzgggmUT-65" value="&lt;h1 style=&quot;margin-top: 0px; line-height: 50%;&quot;&gt;&lt;br&gt;&lt;/h1&gt;&lt;h1 style=&quot;margin-top: 0px; line-height: 50%;&quot;&gt;Domain Services&lt;/h1&gt;&lt;p style=&quot;line-height: 90%;&quot;&gt;&lt;font style=&quot;font-size: 16px; line-height: 100%;&quot;&gt;&lt;font&gt;This layer&#39;s code resides in the infrastructure layer, and it defines the relationship between the domain model&amp;nbsp;&lt;/font&gt;&lt;span style=&quot;background-color: initial;&quot;&gt;and the infrastructure, as the Cheep and Author repositories must implement their corresponding interface from this level&lt;/span&gt;&lt;/font&gt;&lt;/p&gt;" style="text;html=1;whiteSpace=wrap;overflow=hidden;rounded=0;" parent="TLWgxVk_4iHTqdzo4RCf-8" vertex="1">
          <mxGeometry x="-2" y="777" width="260" height="210" as="geometry" />
        </mxCell>
        <mxCell id="YltTFYBNyNlsqMFiV3Cx-7" value="&lt;font style=&quot;font-weight: 700; font-size: 17px;&quot; color=&quot;#000000&quot;&gt;&amp;lt;&amp;lt;Interface&amp;gt;&amp;gt;&lt;/font&gt;&lt;div style=&quot;color: rgb(255, 255, 255); font-weight: 700;&quot;&gt;&lt;font style=&quot;font-size: 17px;&quot; color=&quot;#000000&quot;&gt;ICheepRepository&lt;/font&gt;&lt;/div&gt;" style="rounded=0;whiteSpace=wrap;html=1;fillColor=#6d8764;fontColor=#ffffff;strokeColor=#3A5431;" vertex="1" parent="TLWgxVk_4iHTqdzo4RCf-8">
          <mxGeometry x="-270" y="1150" width="170" height="54" as="geometry" />
        </mxCell>
        <mxCell id="YltTFYBNyNlsqMFiV3Cx-8" value="&lt;font style=&quot;font-weight: 700; font-size: 17px;&quot; color=&quot;#000000&quot;&gt;&amp;lt;&amp;lt;Interface&amp;gt;&amp;gt;&lt;/font&gt;&lt;div style=&quot;font-weight: 700;&quot;&gt;&lt;font style=&quot;font-size: 17px;&quot; color=&quot;#000000&quot;&gt;IAuthorRepository&lt;/font&gt;&lt;/div&gt;" style="rounded=0;whiteSpace=wrap;html=1;fillColor=#6d8764;fontColor=#ffffff;strokeColor=#3A5431;" vertex="1" parent="TLWgxVk_4iHTqdzo4RCf-8">
          <mxGeometry x="-180" y="990" width="170" height="54" as="geometry" />
        </mxCell>
        <mxCell id="TLWgxVk_4iHTqdzo4RCf-7" value="1" parent="0" />
        <mxCell id="wKvgLo9anTYskzgggmUT-30" value="" style="shape=stencil(rVRNT4NAEP01JHqgQdCDxwb14MHE6B+Ybqdl0mWX7C6F+uudZUtbSmmMmhBg3mPefC5RltsCKozSREGJUfYUpel7DcahYSwnIySTKb8Xgbx/DGYzNMFWKFzAtmAIFr2fdUZvsKGl2yuQKtCQ82z2HCVz/sZfWS60UixCWtkBc8KzGJBi36QNYsnsIYTZ7e1gVRyhRF/EKXos8S0AUfry60h3P4v0cTlSljMyVXCWL0Bs1kbXankxvwp8M0dET5d6i8fE+xENO3S59F5BkjpRSP5XoE/oisJn4b3BCL4bWBLx88a0HuOWMLa79SsJXZ1O860EJwpvdJ79Ulv6OnwBoiDsHJoC/GB3uvYGKDfj52ttPWiwkiAw0OaQxL6ehlwIQjyx+VTx+7zP+m/Oym9jaMnGRjvwKzDolASzxph14pWE9YCyDWI1hv8wbCG1xSungfHRwnXoxJZm+UobvLK+K5Iy/BamTsZIoEPDVDvgGw==);whiteSpace=wrap;html=1;fillColor=#647687;strokeColor=#314354;rotation=-180;shadow=1;shadowColor=#FFFFFF;shadowOpacity=40;shadowOffsetX=-5;shadowBlur=5;shadowOffsetY=-5;perimeter=rectanglePerimeter;" parent="TLWgxVk_4iHTqdzo4RCf-7" vertex="1">
          <mxGeometry x="-100" y="940" width="360" height="360" as="geometry" />
        </mxCell>
        <mxCell id="wKvgLo9anTYskzgggmUT-64" value="&lt;h1 style=&quot;margin-top: 0px; line-height: 60%;&quot;&gt;&lt;br&gt;&lt;/h1&gt;&lt;h1 style=&quot;margin-top: 0px; line-height: 60%;&quot;&gt;Domain Model&lt;/h1&gt;&lt;h3 style=&quot;line-height: 60%;&quot;&gt;&lt;font style=&quot;font-size: 17px;&quot;&gt;Chirp.Core&lt;/font&gt;&lt;/h3&gt;&lt;p style=&quot;line-height: 100%;&quot;&gt;&lt;font style=&quot;font-size: 17px; line-height: 110%;&quot;&gt;This layer contains our domain model, where we define Authors and Cheeps, as well as Data Transfer Objects&lt;/font&gt;&lt;/p&gt;" style="text;html=1;whiteSpace=wrap;overflow=hidden;rounded=0;" parent="TLWgxVk_4iHTqdzo4RCf-7" vertex="1">
          <mxGeometry x="60" y="970" width="210" height="190" as="geometry" />
        </mxCell>
        <mxCell id="YltTFYBNyNlsqMFiV3Cx-11" value="&lt;font color=&quot;#000000&quot;&gt;&lt;span style=&quot;font-size: 17px;&quot;&gt;&lt;b&gt;Author&lt;/b&gt;&lt;/span&gt;&lt;/font&gt;" style="rounded=1;whiteSpace=wrap;html=1;fillColor=#6d8764;fontColor=#ffffff;strokeColor=#3A5431;" vertex="1" parent="TLWgxVk_4iHTqdzo4RCf-7">
          <mxGeometry x="148.75" y="1169" width="92.5" height="50" as="geometry" />
        </mxCell>
        <mxCell id="YltTFYBNyNlsqMFiV3Cx-12" value="&lt;font color=&quot;#000000&quot;&gt;&lt;span style=&quot;font-size: 17px;&quot;&gt;&lt;b&gt;Cheep&lt;/b&gt;&lt;/span&gt;&lt;/font&gt;" style="rounded=1;whiteSpace=wrap;html=1;fillColor=#6d8764;fontColor=#ffffff;strokeColor=#3A5431;" vertex="1" parent="TLWgxVk_4iHTqdzo4RCf-7">
          <mxGeometry x="40" y="1169" width="92.5" height="50" as="geometry" />
        </mxCell>
        <mxCell id="YltTFYBNyNlsqMFiV3Cx-13" value="&lt;font color=&quot;#000000&quot;&gt;&lt;span style=&quot;font-size: 17px;&quot;&gt;&lt;b&gt;CheepDTO&lt;/b&gt;&lt;/span&gt;&lt;/font&gt;" style="rounded=1;whiteSpace=wrap;html=1;fillColor=#6d8764;fontColor=#ffffff;strokeColor=#3A5431;" vertex="1" parent="TLWgxVk_4iHTqdzo4RCf-7">
          <mxGeometry x="40" y="1229" width="92.5" height="50" as="geometry" />
        </mxCell>
        <mxCell id="YltTFYBNyNlsqMFiV3Cx-14" value="&lt;font color=&quot;#000000&quot;&gt;&lt;span style=&quot;font-size: 17px;&quot;&gt;&lt;b&gt;AuthorDTO&lt;/b&gt;&lt;/span&gt;&lt;/font&gt;" style="rounded=1;whiteSpace=wrap;html=1;fillColor=#6d8764;fontColor=#ffffff;strokeColor=#3A5431;" vertex="1" parent="TLWgxVk_4iHTqdzo4RCf-7">
          <mxGeometry x="148.75" y="1229" width="92.5" height="50" as="geometry" />
        </mxCell>
      </root>
    </mxGraphModel>
  </diagram>
</mxfile>
